<mxfile host="app.diagrams.net" modified="2022-10-14T09:41:51.342Z" agent="5.0 (Macintosh; Intel Mac OS X 10_15_7) AppleWebKit/537.36 (KHTML, like Gecko) Chrome/105.0.0.0 Safari/537.36" etag="EGvu2OqhGOnFocLQ2fjd" version="20.2.2" type="github">
  <diagram id="prtHgNgQTEPvFCAcTncT" name="Page-1">
    <mxGraphModel dx="834" dy="1053" grid="1" gridSize="10" guides="1" tooltips="1" connect="1" arrows="1" fold="1" page="1" pageScale="1" pageWidth="827" pageHeight="1169" background="#F1FAEE" math="0" shadow="0">
      <root>
        <mxCell id="0" />
        <mxCell id="1" parent="0" />
        <mxCell id="oEH_-7oatvTcOVBojGyl-7" style="edgeStyle=orthogonalEdgeStyle;rounded=0;sketch=1;hachureGap=4;orthogonalLoop=1;jettySize=auto;html=1;exitX=0.5;exitY=1;exitDx=0;exitDy=0;entryX=0.5;entryY=0;entryDx=0;entryDy=0;fontFamily=Architects Daughter;fontSource=https%3A%2F%2Ffonts.googleapis.com%2Fcss%3Ffamily%3DArchitects%2BDaughter;fontSize=16;endArrow=open;startSize=14;endSize=14;sourcePerimeterSpacing=8;targetPerimeterSpacing=8;strokeColor=#457B9D;fontColor=#1D3557;labelBackgroundColor=#F1FAEE;" edge="1" parent="1" source="oEH_-7oatvTcOVBojGyl-1" target="oEH_-7oatvTcOVBojGyl-17">
          <mxGeometry relative="1" as="geometry">
            <mxPoint x="150" y="660" as="targetPoint" />
          </mxGeometry>
        </mxCell>
        <mxCell id="oEH_-7oatvTcOVBojGyl-9" style="edgeStyle=orthogonalEdgeStyle;rounded=0;sketch=1;hachureGap=4;orthogonalLoop=1;jettySize=auto;html=1;exitX=0.5;exitY=1;exitDx=0;exitDy=0;entryX=0.5;entryY=0;entryDx=0;entryDy=0;fontFamily=Architects Daughter;fontSource=https%3A%2F%2Ffonts.googleapis.com%2Fcss%3Ffamily%3DArchitects%2BDaughter;fontSize=16;endArrow=open;startSize=14;endSize=14;sourcePerimeterSpacing=8;targetPerimeterSpacing=8;strokeColor=#457B9D;fontColor=#1D3557;labelBackgroundColor=#F1FAEE;" edge="1" parent="1" source="oEH_-7oatvTcOVBojGyl-1" target="oEH_-7oatvTcOVBojGyl-20">
          <mxGeometry relative="1" as="geometry">
            <mxPoint x="340" y="660" as="targetPoint" />
          </mxGeometry>
        </mxCell>
        <mxCell id="oEH_-7oatvTcOVBojGyl-10" style="edgeStyle=orthogonalEdgeStyle;rounded=0;sketch=1;hachureGap=4;orthogonalLoop=1;jettySize=auto;html=1;exitX=0.5;exitY=1;exitDx=0;exitDy=0;entryX=0.5;entryY=0;entryDx=0;entryDy=0;fontFamily=Architects Daughter;fontSource=https%3A%2F%2Ffonts.googleapis.com%2Fcss%3Ffamily%3DArchitects%2BDaughter;fontSize=16;endArrow=open;startSize=14;endSize=14;sourcePerimeterSpacing=8;targetPerimeterSpacing=8;strokeColor=#457B9D;fontColor=#1D3557;labelBackgroundColor=#F1FAEE;" edge="1" parent="1" source="oEH_-7oatvTcOVBojGyl-1" target="oEH_-7oatvTcOVBojGyl-11">
          <mxGeometry relative="1" as="geometry">
            <mxPoint x="530" y="660" as="targetPoint" />
          </mxGeometry>
        </mxCell>
        <mxCell id="oEH_-7oatvTcOVBojGyl-1" value="FtnManager" style="rounded=0;whiteSpace=wrap;html=1;sketch=1;hachureGap=4;fontFamily=Architects Daughter;fontSource=https%3A%2F%2Ffonts.googleapis.com%2Fcss%3Ffamily%3DArchitects%2BDaughter;fontSize=20;fillColor=#A8DADC;strokeColor=#457B9D;fontColor=#1D3557;" vertex="1" parent="1">
          <mxGeometry x="280" y="490" width="120" height="60" as="geometry" />
        </mxCell>
        <mxCell id="oEH_-7oatvTcOVBojGyl-11" value="FileMgrX" style="swimlane;sketch=1;hachureGap=4;fontFamily=Architects Daughter;fontSource=https%3A%2F%2Ffonts.googleapis.com%2Fcss%3Ffamily%3DArchitects%2BDaughter;fontSize=20;fontColor=#1D3557;strokeColor=#457B9D;fillColor=#A8DADC;" vertex="1" parent="1">
          <mxGeometry x="470" y="660" width="170" height="110" as="geometry" />
        </mxCell>
        <mxCell id="oEH_-7oatvTcOVBojGyl-12" value="&lt;p style=&quot;line-height: 1.5;&quot;&gt;query_file&lt;br&gt;inc_ref&lt;/p&gt;" style="text;html=1;align=center;verticalAlign=middle;resizable=0;points=[];autosize=1;strokeColor=none;fillColor=none;fontSize=20;fontFamily=Architects Daughter;fontColor=#1D3557;" vertex="1" parent="oEH_-7oatvTcOVBojGyl-11">
          <mxGeometry x="25" y="10" width="120" height="110" as="geometry" />
        </mxCell>
        <mxCell id="oEH_-7oatvTcOVBojGyl-17" value="FtnMaster" style="swimlane;sketch=1;hachureGap=4;fontFamily=Architects Daughter;fontSource=https%3A%2F%2Ffonts.googleapis.com%2Fcss%3Ffamily%3DArchitects%2BDaughter;fontSize=20;fontColor=#1D3557;strokeColor=#457B9D;fillColor=#A8DADC;startSize=23;" vertex="1" parent="1">
          <mxGeometry x="40" y="660" width="170" height="70" as="geometry" />
        </mxCell>
        <mxCell id="oEH_-7oatvTcOVBojGyl-18" value="get_svrlist" style="text;html=1;align=center;verticalAlign=middle;resizable=0;points=[];autosize=1;strokeColor=none;fillColor=none;fontSize=20;fontFamily=Architects Daughter;fontColor=#1D3557;" vertex="1" parent="oEH_-7oatvTcOVBojGyl-17">
          <mxGeometry x="25" y="30" width="120" height="40" as="geometry" />
        </mxCell>
        <mxCell id="oEH_-7oatvTcOVBojGyl-20" value="FileMgrXMaster" style="swimlane;sketch=1;hachureGap=4;fontFamily=Architects Daughter;fontSource=https%3A%2F%2Ffonts.googleapis.com%2Fcss%3Ffamily%3DArchitects%2BDaughter;fontSize=20;fontColor=#1D3557;strokeColor=#457B9D;fillColor=#A8DADC;startSize=23;" vertex="1" parent="1">
          <mxGeometry x="240" y="660" width="200" height="70" as="geometry" />
        </mxCell>
        <mxCell id="oEH_-7oatvTcOVBojGyl-21" value="redirect_filemgrX" style="text;html=1;align=center;verticalAlign=middle;resizable=0;points=[];autosize=1;strokeColor=none;fillColor=none;fontSize=20;fontFamily=Architects Daughter;fontColor=#1D3557;" vertex="1" parent="oEH_-7oatvTcOVBojGyl-20">
          <mxGeometry x="5" y="30" width="190" height="40" as="geometry" />
        </mxCell>
      </root>
    </mxGraphModel>
  </diagram>
</mxfile>
